<svg width="489" height="389" viewBox="0 0 489 389" fill="none" xmlns="http://www.w3.org/2000/svg">
<g clip-path="url(#clip0)">
<path opacity="0.1" d="M286.781 65.7391C255.84 64.6627 226.366 54.6693 198.226 43.7336C170.087 32.7978 142.215 20.6804 112.014 14.8872C92.5898 11.1606 70.3734 10.6344 54.7258 21.0535C39.6615 31.0995 34.7947 48.393 32.1796 64.457C30.2099 76.5409 29.0529 89.2563 34.4505 100.57C38.1938 108.425 44.8439 115.027 49.4383 122.575C65.4396 148.752 54.133 181.034 36.793 206.593C28.6657 218.586 19.2236 230.034 12.9512 242.788C6.67875 255.541 3.77202 270.175 9.26039 283.197C14.7057 296.113 27.6761 305.795 41.7221 312.612C70.2587 326.461 103.873 330.422 136.674 332.666C209.261 337.636 282.23 335.484 355.008 333.331C381.943 332.532 408.993 331.724 435.488 327.557C450.204 325.241 465.392 321.572 476.077 312.703C489.636 301.447 492.997 282.383 483.913 268.271C468.667 244.596 426.543 238.717 415.873 213.305C410.011 199.322 416.035 183.746 424.555 170.772C442.836 142.95 473.477 118.538 475.092 86.7352C476.202 64.8876 461.467 43.016 438.691 32.6782C414.821 21.8046 381.709 23.1823 364.106 41.1168C345.968 59.5967 314.099 66.6863 286.781 65.7391Z" fill="#2093BF"/>
<path d="M208.18 330.322L44.5428 329.523L28.2833 291.363L85.7772 287.186L75.7567 245.347L189.473 230.599L80.5805 192.72L90.1995 190.434L265.297 219.017L255.654 284.311L241.871 320.195L208.18 330.322Z" fill="#2093BF"/>
<path d="M47.0527 313.54C47.0527 313.54 57.0924 311.933 63.1162 319.032C63.1162 319.032 58.6987 322.515 49.1945 317.693L47.0527 313.54Z" fill="#2093BF"/>
<path d="M46.0009 313.382C46.0009 313.382 39.5946 321.271 42.7499 330.054C42.7499 330.054 47.9706 327.963 48.5395 317.315L46.0009 313.382Z" fill="#2093BF"/>
<path d="M40.2448 300.414C40.2448 300.414 44.2607 293.042 60.3242 303.36C60.3242 303.36 58.1824 308.316 51.0877 307.915C43.993 307.513 42.1189 304.298 40.2448 300.414Z" fill="#2093BF"/>
<path d="M39.2074 299.882C39.2074 299.882 30.8744 298.926 30.0665 318.013C30.0665 318.013 35.3493 319.109 39.1022 313.071C42.8551 307.034 41.3157 303.647 39.2074 299.882Z" fill="#2093BF"/>
<path d="M34.3549 284.656C34.3549 284.656 39.04 271.663 56.0406 280.905C56.0406 280.905 52.1586 292.826 36.0951 289.076L34.3549 284.656Z" fill="#2093BF"/>
<path d="M29.1342 265.233C29.1342 265.233 37.9691 252.107 53.6311 264.277C53.6311 264.277 48.1427 276.6 30.4728 269.902L29.1342 265.233Z" fill="#2093BF"/>
<path d="M27.2601 246.749C27.2601 246.749 37.5676 234.689 53.0765 246.749C53.0765 246.749 43.3045 257.331 27.2601 249.83V246.749Z" fill="#2093BF"/>
<path d="M25.6538 228.795C25.6538 228.795 36.0951 216.204 50.9538 228.125C50.9538 228.125 39.1739 239.243 25.6538 231.742V228.795Z" fill="#2093BF"/>
<path d="M26.5908 212.855C26.5908 212.855 37.5867 196.648 51.4893 207.632C51.4893 207.632 39.7094 221.562 26.5908 215.936V212.855Z" fill="#2093BF"/>
<path d="M29.1342 194.237C29.1342 194.237 40.7803 178.163 54.3004 190.486C54.3004 190.486 40.5125 204.417 29.1342 197.184V194.237Z" fill="#2093BF"/>
<path d="M33.0163 177.594C33.0163 177.594 46.8041 162.487 58.8326 168.505C58.8326 168.505 44.4663 184.55 32.4139 181.603L33.0163 177.594Z" fill="#2093BF"/>
<path d="M37.8353 161.817C37.8353 161.817 53.7458 143.313 63.0015 149.494C63.0015 149.494 51.2789 163.845 36.707 165.281L37.8353 161.817Z" fill="#2093BF"/>
<path d="M44.7914 143.519C44.7914 143.519 58.7178 128.412 68.8914 132.162C68.8914 132.162 56.9776 147.834 42.9221 148.236L44.7914 143.519Z" fill="#2093BF"/>
<path d="M51.0877 126.403C51.0877 126.403 66.4819 111.936 73.175 114.481C73.175 114.481 62.0644 130.555 50.4184 129.617L51.0877 126.403Z" fill="#2093BF"/>
<path d="M57.2454 110.597C57.2454 110.597 70.4978 93.313 77.7311 94.6524C77.7311 94.6524 69.6946 110.061 57.2454 112.353V110.597Z" fill="#2093BF"/>
<path d="M63.929 89.285C63.929 89.285 75.6419 76.0386 81.9717 76.0673C81.9717 76.0673 72.7256 93.7674 63.4461 93.6047L63.929 89.285Z" fill="#2093BF"/>
<path d="M67.8874 75.0962L79.2036 47.5032C79.2036 47.5032 79.7678 72.4459 66.4484 80.2148L67.8874 75.0962Z" fill="#2093BF"/>
<path d="M72.4818 44.6664C72.4818 44.6664 74.3559 21.6228 73.1511 19.7476C73.1511 19.7476 81.2403 38.9067 72.4053 54.8463L72.4818 44.6664Z" fill="#2093BF"/>
<path d="M33.915 284.349C33.915 284.349 22.1829 277.073 14.5862 294.874C14.5862 294.874 25.0275 301.81 35.2967 288.889L33.915 284.349Z" fill="#2093BF"/>
<path d="M28.7566 264.492C28.7566 264.492 14.3663 257.924 7.38635 276.509C7.38635 276.509 18.5017 284.163 30.0665 269.19L28.7566 264.492Z" fill="#2093BF"/>
<path d="M26.5908 247.854C26.5908 247.854 16.2834 235.794 0.774475 247.854C0.774475 247.854 10.5464 258.436 26.5908 250.935V247.854Z" fill="#2093BF"/>
<path d="M25.3 228.795C25.3 228.795 14.8587 216.204 0 228.125C0 228.125 11.7799 239.243 25.3 231.742V228.795Z" fill="#2093BF"/>
<path d="M26.5908 213.315C26.5908 213.315 19.2666 195.16 3.34656 202.967C3.34656 202.967 11.952 219.065 25.9406 216.329L26.5908 213.315Z" fill="#2093BF"/>
<path d="M30.0569 194.146C30.0569 194.146 22.7758 175.676 6.63098 184.239C6.63098 184.239 16.5177 201.169 29.3398 196.997L30.0569 194.146Z" fill="#2093BF"/>
<path d="M34.57 177.685C34.57 177.685 31.7015 157.435 18.3152 155.622C18.3152 155.622 21.155 176.977 32.7676 181.335L34.57 177.685Z" fill="#2093BF"/>
<path d="M38.1747 161.855C38.1747 161.855 37.056 137.458 25.9885 136.606C25.9885 136.606 26.3614 155.124 36.9269 165.309L38.1747 161.855Z" fill="#2093BF"/>
<path d="M45.9388 142.835C45.9388 142.835 42.64 122.547 32.0745 120.069C32.0745 120.069 33.3844 139.716 44.8918 147.815L45.9388 142.835Z" fill="#2093BF"/>
<path d="M52.3403 126.57C52.3403 126.57 52.2303 105.435 45.7762 102.33C45.7762 102.33 41.7747 121.466 50.471 129.268L52.3403 126.57Z" fill="#2093BF"/>
<path d="M57.7378 110.358C57.7378 110.358 56.8342 88.5961 50.1507 85.5297C50.1507 85.5297 47.8654 102.751 56.7386 111.783L57.7378 110.358Z" fill="#2093BF"/>
<path d="M64.8612 91.0215C64.8612 91.0215 64.8229 73.3214 60.0517 69.1691C60.0517 69.1691 55.3091 88.5578 62.3704 94.5807L64.8612 91.0215Z" fill="#2093BF"/>
<path d="M67.3281 74.2255L62.6859 44.7668C62.6859 44.7668 56.3801 68.9059 67.548 79.5451L67.3281 74.2255Z" fill="#2093BF"/>
<path d="M68.2317 44.9439C68.2317 44.9439 56.3179 25.1389 56.5617 22.9384C56.5617 22.9384 57.8286 43.6953 72.8165 54.0331L68.2317 44.9439Z" fill="#2093BF"/>
<path d="M69.6277 39.0932C69.6277 39.0932 58.3832 10.9645 53.2964 8.68738C53.2964 8.68738 69.36 16.8581 70.5647 38.2896L69.6277 39.0932Z" fill="#2093BF"/>
<path d="M63.3887 93.7722L62.619 93.5378C72.1089 62.5722 74.4754 42.8294 69.2882 37.8782L69.838 37.2946C75.3407 42.5185 73.1081 62.046 63.3887 93.7722Z" fill="#444053"/>
<path d="M37.2568 166.276L36.119 165.869C37.1278 163.032 38.213 160.152 39.3508 157.315C49.2567 132.612 57.69 109.63 63.0971 91.9878L64.0867 91.5094C58.6701 109.186 50.3849 133.047 40.4695 157.784C39.3365 160.568 38.256 163.434 37.2568 166.276Z" fill="#444053"/>
<path d="M61.1991 336.713C61.0461 336.546 45.6663 319.214 34.9429 289.626C28.6597 272.303 25.1629 254.093 24.5829 235.674C23.8467 212.65 28.6753 186.942 36.9461 163.587L37.8449 164.639C19.2762 217.056 26.653 261.971 36.4393 289.018C47.0479 318.338 62.2557 335.479 62.4039 335.651L61.1991 336.713Z" fill="#444053"/>
<path d="M301.54 299.916C301.54 299.916 290.702 313.153 299.307 333.163L212.775 370.716L204.47 372.458L200.646 355.714L203.203 334.584V323.036L301.54 299.916Z" fill="#D5D6DB"/>
<path d="M28.2833 291.363L148.052 269.515L306.751 294.812L208.18 330.322L28.2833 291.363Z" fill="#2093BF"/>
<path d="M28.2833 291.363L148.052 269.515L306.751 294.812L208.18 330.322L28.2833 291.363Z" fill="#2093BF"/>
<path d="M28.2833 291.358C28.2833 291.358 17.0818 312.593 29.99 332.207L207.597 370.716C207.597 370.716 196.572 353.801 208.166 330.322L28.2833 291.358Z" fill="#2093BF"/>
<path opacity="0.1" d="M28.2833 291.358C28.2833 291.358 17.0818 312.593 29.99 332.207L207.597 370.716C207.597 370.716 196.572 353.801 208.166 330.322L28.2833 291.358Z" fill="black"/>
<path opacity="0.1" d="M33.5756 298.72C33.5756 298.72 27.1741 314.258 33.5756 324.313Z" fill="black"/>
<path d="M207.597 370.716L306.751 328.38C306.751 328.38 312.297 329.576 308.711 333.642C305.125 337.708 209.509 374.783 209.509 374.783L29.99 332.207L207.597 370.716Z" fill="#2093BF"/>
<path opacity="0.1" d="M207.597 370.716L306.751 328.38C306.751 328.38 312.297 329.576 308.711 333.642C305.125 337.708 209.509 374.783 209.509 374.783L29.99 332.207L207.597 370.716Z" fill="black"/>
<path opacity="0.1" d="M199.47 334.599C199.47 334.599 189.908 346.08 199.47 363.301Z" fill="black"/>
<path opacity="0.1" d="M245.761 334.404L202.873 348.722L203.024 349.176L245.912 334.858L245.761 334.404Z" fill="black"/>
<path opacity="0.1" d="M254.351 332.98L202.859 352.572L203.029 353.02L254.521 333.427L254.351 332.98Z" fill="black"/>
<path opacity="0.1" d="M262.24 332.911L203.146 357.114L203.328 357.557L262.421 333.354L262.24 332.911Z" fill="black"/>
<path opacity="0.1" d="M270.819 330.838L203.836 361.115L204.033 361.551L271.016 331.274L270.819 330.838Z" fill="black"/>
<path opacity="0.1" d="M278.027 330.848L204.366 363.065L204.558 363.504L278.218 331.287L278.027 330.848Z" fill="black"/>
<path opacity="0.1" d="M293.791 328.169L205.477 366.337L205.667 366.776L293.981 328.608L293.791 328.169Z" fill="black"/>
<path opacity="0.3" d="M72.7782 293.697L156.92 275.997L208.18 285.804L139.231 308.048L72.7782 293.697Z" fill="white"/>
<path d="M306.751 294.812C306.751 294.812 311.101 296.567 308.548 299.28C305.996 301.992 208.166 330.322 208.166 330.322L306.751 294.812Z" fill="#2093BF"/>
<path d="M349.008 253.905C349.008 253.905 338.175 267.137 346.781 287.153L260.248 324.706L251.944 326.457L248.119 309.713L250.715 288.588V277.025L349.008 253.905Z" fill="#D5D6DB"/>
<path d="M75.7567 245.347L195.521 223.504L354.224 248.801L255.654 284.311L75.7567 245.347Z" fill="#3A3768"/>
<path d="M75.7375 245.347C75.7375 245.347 64.5313 266.582 77.4395 286.196L255.046 324.706C255.046 324.706 244.027 307.776 255.634 284.306L75.7375 245.347Z" fill="#3A3768"/>
<path opacity="0.1" d="M75.7375 245.347C75.7375 245.347 64.5313 266.582 77.4395 286.196L255.046 324.706C255.046 324.706 244.027 307.776 255.634 284.306L199.47 272.141L75.7375 245.347Z" fill="black"/>
<path opacity="0.1" d="M81.0442 252.709C81.0442 252.709 74.6475 268.242 81.0442 278.303Z" fill="black"/>
<path d="M255.066 324.706L354.224 282.369C354.224 282.369 359.765 283.565 356.18 287.631C352.594 291.697 256.978 328.772 256.978 328.772L77.4586 286.196L255.066 324.706Z" fill="#3A3768"/>
<path opacity="0.1" d="M255.066 324.706L354.224 282.369C354.224 282.369 359.765 283.565 356.18 287.631C352.594 291.697 256.978 328.772 256.978 328.772L77.4586 286.196L255.066 324.706Z" fill="black"/>
<path opacity="0.1" d="M246.938 288.588C246.938 288.588 237.377 300.069 246.938 317.291Z" fill="black"/>
<path opacity="0.1" d="M293.233 288.399L250.345 302.716L250.496 303.17L293.384 288.853L293.233 288.399Z" fill="black"/>
<path opacity="0.1" d="M301.829 286.972L250.337 306.565L250.507 307.012L301.999 287.419L301.829 286.972Z" fill="black"/>
<path opacity="0.1" d="M309.712 286.897L250.618 311.1L250.799 311.542L309.893 287.339L309.712 286.897Z" fill="black"/>
<path opacity="0.1" d="M318.296 284.825L251.313 315.102L251.51 315.538L318.493 285.261L318.296 284.825Z" fill="black"/>
<path opacity="0.1" d="M325.497 284.829L251.836 317.046L252.028 317.484L325.688 285.267L325.497 284.829Z" fill="black"/>
<path opacity="0.1" d="M341.265 282.15L252.951 320.317L253.14 320.757L341.454 282.589L341.265 282.15Z" fill="black"/>
<path opacity="0.45" d="M120.252 247.686L204.394 229.986L255.654 239.793L186.705 262.038L120.252 247.686Z" fill="white"/>
<path d="M354.224 248.801C354.224 248.801 358.57 250.557 356.022 253.264C353.474 255.972 255.654 284.306 255.654 284.306L354.224 248.801Z" fill="#3A3768"/>
<path d="M353.502 201.269C353.502 201.269 342.664 225.03 351.27 245.041L264.737 272.069L256.452 273.825L252.627 257.082L255.185 235.952V224.389L353.502 201.269Z" fill="#D5D6DB"/>
<path d="M80.265 192.716L200.034 170.868L358.737 196.165L260.162 231.675L80.265 192.716Z" fill="#2093BF"/>
<path d="M80.265 192.711C80.265 192.711 69.0444 213.946 81.9526 233.56L259.56 272.069C259.56 272.069 248.535 255.14 260.143 231.675L80.265 192.711Z" fill="#2093BF"/>
<path opacity="0.1" d="M80.265 192.711C80.265 192.711 69.0444 213.946 81.9526 233.56L259.56 272.069C259.56 272.069 248.535 255.14 260.143 231.675L80.265 192.711Z" fill="black"/>
<path opacity="0.1" d="M85.5573 200.073C85.5573 200.073 79.1558 215.611 85.5573 225.666Z" fill="black"/>
<path d="M259.579 272.069L358.733 240.257C358.733 240.257 364.278 241.453 360.693 245.519C357.107 249.586 261.491 276.136 261.491 276.136L81.9717 233.56L259.579 272.069Z" fill="#2093BF"/>
<path opacity="0.1" d="M259.579 272.069L358.733 240.257C358.733 240.257 364.278 241.453 360.693 245.519C357.107 249.586 261.491 276.136 261.491 276.136L81.9717 233.56L259.579 272.069Z" fill="black"/>
<path opacity="0.1" d="M251.451 235.952C251.451 235.952 241.89 247.433 251.451 264.655Z" fill="black"/>
<path opacity="0.1" d="M297.748 235.762L254.859 250.079L255.011 250.533L297.899 236.215L297.748 235.762Z" fill="black"/>
<path opacity="0.1" d="M306.341 234.337L254.849 253.93L255.018 254.377L306.511 234.784L306.341 234.337Z" fill="black"/>
<path opacity="0.1" d="M314.218 234.264L255.125 258.467L255.306 258.91L314.399 234.707L314.218 234.264Z" fill="black"/>
<path opacity="0.1" d="M322.809 232.188L255.826 262.465L256.023 262.901L323.006 232.624L322.809 232.188Z" fill="black"/>
<path opacity="0.1" d="M330.012 232.197L256.352 264.413L256.544 264.852L330.204 232.635L330.012 232.197Z" fill="black"/>
<path opacity="0.1" d="M345.779 229.521L257.465 267.688L257.655 268.128L345.969 229.96L345.779 229.521Z" fill="black"/>
<path opacity="0.3" d="M124.76 195.05L208.902 177.35L260.162 187.157L191.213 209.402L124.76 195.05Z" fill="white"/>
<path d="M358.733 196.165C358.733 196.165 363.083 197.92 360.53 200.633C357.977 203.345 260.162 231.675 260.162 231.675L358.733 196.165Z" fill="#2093BF"/>
<path d="M148.406 50.9476C148.406 50.9476 130.239 49.8521 132.361 62.6057C132.361 62.6057 131.936 64.8589 133.977 65.8826C133.977 65.8826 134.011 64.9258 135.842 65.2559C136.495 65.3682 137.16 65.4004 137.821 65.3516C138.712 65.2905 139.56 64.9413 140.235 64.3566V64.3566C140.235 64.3566 145.346 62.2421 147.335 53.88C147.335 53.88 148.807 52.0574 148.769 51.5886L145.69 52.8994C145.69 52.8994 146.737 55.1142 145.915 56.956C145.915 56.956 145.815 52.9807 145.222 53.0716C145.102 53.0716 143.63 53.8418 143.63 53.8418C143.63 53.8418 145.432 57.7023 144.07 60.5056C144.07 60.5056 144.586 55.7505 143.066 54.1192L140.905 55.3821C140.905 55.3821 143.013 59.3671 141.584 62.62C141.584 62.62 141.952 57.6305 140.451 55.6883L138.49 57.2191C138.49 57.2191 140.474 61.1466 139.265 63.8447C139.265 63.8447 139.107 58.0372 138.07 57.597C138.07 57.597 136.353 59.1087 136.095 59.7306C136.095 59.7306 137.453 62.6009 136.607 64.0887C136.607 64.0887 136.095 60.2186 135.651 60.1994C135.651 60.1994 133.944 62.7636 133.767 64.5049C133.85 62.8815 134.356 61.3081 135.235 59.9411C134.251 60.1273 133.343 60.598 132.624 61.2949C132.624 61.2949 132.887 59.4819 135.66 59.324C135.66 59.324 137.071 57.377 137.448 57.2622C137.448 57.2622 134.69 57.0278 133.021 57.7693C133.021 57.7693 134.494 56.0614 137.95 56.8125L139.863 55.2338C139.863 55.2338 136.239 54.7555 134.699 55.2865C134.699 55.2865 136.473 53.7748 140.384 54.8751L142.492 53.6169C142.492 53.6169 139.399 52.952 137.558 53.1912C137.558 53.1912 139.499 52.1435 143.109 53.2773L144.61 52.6028C144.61 52.6028 142.349 52.1579 141.684 52.0861C141.019 52.0143 140.986 51.8326 140.986 51.8326C142.421 51.5967 143.894 51.7622 145.241 52.3109C145.241 52.3109 148.468 51.1485 148.406 50.9476Z" fill="#2093BF"/>
<path opacity="0.1" d="M403.988 103.368C403.988 103.368 385.821 102.273 387.943 115.027C387.943 115.027 387.518 117.28 389.559 118.304C389.559 118.304 389.593 117.347 391.424 117.677C392.077 117.787 392.742 117.819 393.403 117.773C394.286 117.707 395.125 117.358 395.793 116.777V116.777C395.793 116.777 400.909 114.663 402.893 106.301C402.893 106.301 404.365 104.478 404.327 104.01L401.258 105.32C401.258 105.32 402.305 107.535 401.483 109.377C401.483 109.377 401.382 105.402 400.794 105.492C400.675 105.492 399.197 106.263 399.197 106.263C399.197 106.263 401 110.123 399.642 112.927C399.642 112.927 400.158 108.171 398.633 106.54L396.472 107.803C396.472 107.803 398.581 111.788 397.151 115.041C397.151 115.041 397.519 110.051 396.018 108.109L394.063 109.64C394.063 109.64 396.042 113.568 394.832 116.266C394.832 116.266 394.675 110.458 393.637 110.018C393.637 110.018 391.926 111.53 391.663 112.152C391.663 112.152 393.02 115.022 392.179 116.51C392.179 116.51 391.663 112.64 391.223 112.62C391.223 112.62 389.516 115.184 389.339 116.926C389.422 115.302 389.93 113.728 390.812 112.362C389.827 112.549 388.918 113.019 388.197 113.716C388.197 113.716 388.464 111.903 391.232 111.745C391.232 111.745 392.643 109.798 393.02 109.678C393.02 109.678 390.267 109.449 388.593 110.19C388.593 110.19 390.066 108.482 393.522 109.233L395.435 107.655C395.435 107.655 391.806 107.176 390.272 107.707C390.272 107.707 392.04 106.196 395.956 107.296L398.059 106.038C398.059 106.038 394.966 105.373 393.126 105.612C393.126 105.612 395.067 104.564 398.676 105.698L400.182 105.024C400.182 105.024 397.916 104.579 397.252 104.507C396.587 104.435 396.553 104.253 396.553 104.253C397.989 104.015 399.462 104.18 400.808 104.732C400.808 104.732 404.045 103.569 403.988 103.368Z" fill="#2093BF"/>
<path opacity="0.1" d="M179.003 129.737C179.003 129.737 171.086 113.314 161.008 121.408C161.008 121.408 158.833 122.135 158.938 124.417C158.938 124.417 159.775 123.982 160.372 125.742C160.595 126.365 160.891 126.959 161.252 127.512C161.741 128.263 162.461 128.834 163.303 129.139C163.303 129.139 167.639 132.574 175.905 130.23C175.905 130.23 178.214 130.627 178.592 130.349L175.953 128.307C175.953 128.307 174.519 130.301 172.52 130.478C172.52 130.478 175.943 128.455 175.575 127.986C175.499 127.89 174.141 126.967 174.141 126.967C174.141 126.967 171.65 130.426 168.543 130.603C168.543 130.603 172.941 128.737 173.62 126.608L171.468 125.336C171.468 125.336 169.016 129.125 165.483 129.459C165.483 129.459 170.015 127.35 170.976 125.092L168.691 124.135C168.691 124.135 166.229 127.78 163.284 128.043C163.284 128.043 168.275 125.073 168.151 123.948C168.151 123.948 165.994 123.193 165.325 123.264C165.325 123.264 163.499 125.843 161.778 125.843C161.778 125.843 164.9 123.504 164.708 123.126C164.708 123.126 161.639 122.886 160.023 123.604C161.479 122.88 163.1 122.55 164.723 122.647C164.079 121.879 163.225 121.315 162.265 121.026C162.265 121.026 163.977 120.375 165.464 122.714C165.464 122.714 167.854 122.996 168.136 123.269C168.136 123.269 166.994 120.753 165.535 119.657C165.535 119.657 167.744 120.102 168.753 123.484L171.072 124.403C171.072 124.403 169.738 120.997 168.509 119.92C168.509 119.92 170.689 120.729 171.641 124.704L173.763 125.929C173.763 125.929 172.84 122.901 171.731 121.413C171.731 121.413 173.591 122.599 174.361 126.302L175.685 127.288C175.685 127.288 174.968 125.092 174.729 124.479C174.49 123.867 174.609 123.743 174.609 123.743C175.519 124.879 176.095 126.245 176.273 127.689C176.273 127.689 178.831 129.88 179.003 129.737Z" fill="#2093BF"/>
<path opacity="0.1" d="M362.481 80.1671C362.481 80.1671 354.568 63.7442 344.486 71.8384C344.486 71.8384 342.315 72.5656 342.416 74.8475C342.416 74.8475 343.257 74.4169 343.85 76.1726C344.073 76.7974 344.37 77.3933 344.734 77.9474C345.222 78.6965 345.94 79.2659 346.781 79.5691V79.5691C346.781 79.5691 351.122 83.0038 359.383 80.6646C359.383 80.6646 361.692 81.0568 362.074 80.7794L359.45 78.7319C359.45 78.7319 358.015 80.7315 356.022 80.9085C356.022 80.9085 359.44 78.8802 359.072 78.4114C358.996 78.3157 357.638 77.3924 357.638 77.3924C357.638 77.3924 355.152 80.8511 352.039 81.0281C352.039 81.0281 356.443 79.1625 357.121 77.0384L354.937 75.7755C354.937 75.7755 352.489 79.5595 348.951 79.8992C348.951 79.8992 353.483 77.7847 354.449 75.5268L352.159 74.57C352.159 74.57 349.697 78.22 346.757 78.4784C346.757 78.4784 351.743 75.5076 351.619 74.3882C351.619 74.3882 349.467 73.6276 348.798 73.7041C348.798 73.7041 346.972 76.2778 345.246 76.2778C345.246 76.2778 348.373 73.9385 348.181 73.5606C348.181 73.5606 345.112 73.3214 343.491 74.039C344.947 73.3146 346.568 72.9847 348.191 73.0822C347.549 72.3134 346.697 71.7496 345.738 71.4605C345.738 71.4605 347.45 70.8099 348.937 73.1492C348.937 73.1492 351.327 73.4362 351.609 73.7089C351.609 73.7089 350.467 71.1879 349.004 70.0924C349.004 70.0924 351.212 70.542 352.221 73.9433L354.545 74.8618C354.545 74.8618 353.211 71.451 351.982 70.3746C351.982 70.3746 354.162 71.1831 355.109 75.1584L357.236 76.3831C357.236 76.3831 356.309 73.3597 355.2 71.8671C355.2 71.8671 357.064 73.0535 357.829 76.7562L359.153 77.7417C359.153 77.7417 358.441 75.5459 358.197 74.9336C357.953 74.3212 358.078 74.2016 358.078 74.2016C358.984 75.3385 359.559 76.7046 359.737 78.1483C359.737 78.1483 362.333 80.3201 362.481 80.1671Z" fill="#2093BF"/>
<path opacity="0.1" d="M387.766 161.401C387.766 161.401 379.854 144.973 369.757 153.067C369.757 153.067 367.587 153.795 367.687 156.076C367.687 156.076 368.528 155.646 369.121 157.402C369.343 158.026 369.638 158.622 370.001 159.176C370.488 159.925 371.207 160.495 372.047 160.798C372.047 160.798 376.388 164.238 384.654 161.894C384.654 161.894 386.959 162.291 387.341 162.008L384.702 159.966C384.702 159.966 383.268 161.965 381.269 162.142C381.269 162.142 384.688 160.114 384.319 159.645C384.243 159.55 382.885 158.626 382.885 158.626C382.885 158.626 380.399 162.085 377.287 162.267C377.287 162.267 381.69 160.396 382.369 158.272L380.213 157C380.213 157 377.765 160.789 374.227 161.123C374.227 161.123 378.759 159.009 379.725 156.751L377.435 155.794C377.435 155.794 374.973 159.439 372.033 159.703C372.033 159.703 377.024 156.732 376.9 155.608C376.9 155.608 374.744 154.847 374.074 154.924C374.074 154.924 372.248 157.497 370.522 157.497C370.522 157.497 373.649 155.158 373.457 154.78C373.457 154.78 370.388 154.541 368.767 155.258C370.225 154.534 371.847 154.205 373.472 154.302C372.829 153.532 371.975 152.968 371.014 152.68C371.014 152.68 372.726 152.025 374.213 154.369C374.213 154.369 376.603 154.651 376.885 154.924C376.885 154.924 375.743 152.407 374.285 151.307C374.285 151.307 376.493 151.757 377.502 155.158L379.821 156.076C379.821 156.076 378.487 152.666 377.258 151.594C377.258 151.594 379.438 152.398 380.385 156.378L382.512 157.598C382.512 157.598 381.585 154.574 380.476 153.082C380.476 153.082 382.34 154.268 383.11 157.976L384.434 158.932C384.434 158.932 383.717 156.737 383.478 156.124C383.239 155.512 383.359 155.392 383.359 155.392C384.268 156.528 384.842 157.895 385.017 159.339C385.017 159.339 387.618 161.544 387.766 161.401Z" fill="#2093BF"/>
<path opacity="0.1" d="M96.5484 375.127C102.619 375.127 107.539 374.577 107.539 373.898C107.539 373.219 102.619 372.668 96.5484 372.668C90.4782 372.668 85.5573 373.219 85.5573 373.898C85.5573 374.577 90.4782 375.127 96.5484 375.127Z" fill="#2093BF"/>
<path opacity="0.1" d="M24.4969 354.231C30.5671 354.231 35.4879 353.681 35.4879 353.002C35.4879 352.323 30.5671 351.772 24.4969 351.772C18.4267 351.772 13.5058 352.323 13.5058 353.002C13.5058 353.681 18.4267 354.231 24.4969 354.231Z" fill="#2093BF"/>
<path opacity="0.1" d="M151.47 389.005C157.54 389.005 162.461 388.454 162.461 387.775C162.461 387.096 157.54 386.546 151.47 386.546C145.4 386.546 140.479 387.096 140.479 387.775C140.479 388.454 145.4 389.005 151.47 389.005Z" fill="#2093BF"/>
<path opacity="0.1" d="M432.916 358.776C438.987 358.776 443.907 358.225 443.907 357.546C443.907 356.867 438.987 356.317 432.916 356.317C426.846 356.317 421.925 356.867 421.925 357.546C421.925 358.225 426.846 358.776 432.916 358.776Z" fill="#2093BF"/>
<path opacity="0.1" d="M341.455 352.811C347.525 352.811 352.446 352.26 352.446 351.581C352.446 350.902 347.525 350.352 341.455 350.352C335.385 350.352 330.464 350.902 330.464 351.581C330.464 352.26 335.385 352.811 341.455 352.811Z" fill="#2093BF"/>
<path opacity="0.1" d="M282.287 381.906C289.467 381.906 295.286 380.905 295.286 379.672C295.286 378.438 289.467 377.438 282.287 377.438C275.108 377.438 269.288 378.438 269.288 379.672C269.288 380.905 275.108 381.906 282.287 381.906Z" fill="#2093BF"/>
<path d="M288.087 357.216C288.087 357.216 269.986 366.574 279.338 377.595C279.338 377.595 280.217 379.987 282.761 379.82C282.761 379.82 282.254 378.892 284.195 378.15C284.886 377.883 285.542 377.535 286.15 377.112C286.972 376.544 287.587 375.722 287.9 374.773V374.773C287.9 374.773 291.601 369.817 288.732 360.646C288.732 360.646 289.105 358.054 288.78 357.633L286.581 360.651C286.581 360.651 288.852 362.177 289.114 364.421C289.114 364.421 286.724 360.656 286.246 361.072C286.141 361.158 285.156 362.723 285.156 362.723C285.156 362.723 289.095 365.397 289.387 368.87C289.387 368.87 287.169 364.005 284.773 363.311L283.401 365.76C283.401 365.76 287.704 368.382 288.182 372.324C288.182 372.324 285.682 367.325 283.129 366.315L282.12 368.903C282.12 368.903 286.27 371.544 286.652 374.826C286.652 374.826 283.181 369.339 281.934 369.511C281.934 369.511 281.15 371.941 281.255 372.692C281.255 372.692 284.185 374.653 284.238 376.581C284.238 376.581 281.532 373.161 281.116 373.386C281.116 373.386 280.944 376.825 281.776 378.614C281.776 378.614 280.342 376.06 280.576 373.386C279.738 374.128 279.134 375.099 278.841 376.179C278.841 376.179 278.061 374.29 280.629 372.548C280.629 372.548 280.872 369.874 281.169 369.544C281.169 369.544 278.391 370.903 277.21 372.568C277.21 372.568 277.645 370.085 281.413 368.851L282.369 366.229C282.369 366.229 278.601 367.827 277.44 369.233C277.44 369.233 278.276 366.77 282.665 365.588L283.966 363.196C283.966 363.196 280.619 364.325 278.984 365.588C278.984 365.588 280.251 363.469 284.367 362.493L285.424 360.986C285.424 360.986 282.995 361.852 282.316 362.163C281.637 362.474 281.503 362.321 281.503 362.321C282.744 361.27 284.252 360.585 285.859 360.34C285.859 360.34 288.254 357.379 288.087 357.216Z" fill="#2093BF"/>
<path d="M341.809 180.488C338.682 171.987 321.471 171.189 314.003 173.356C308.697 174.901 297.51 176.642 291.534 177.517L291.146 177.149C291.921 176.92 291.94 176.355 291.844 175.518C291.789 174.415 291.805 173.309 291.892 172.207C295.554 173.346 298.815 170.653 298.815 170.653C303.117 168.739 301.961 160.549 302.783 158.311C303.4 156.636 304.064 146.772 304.361 141.854H304.423L304.456 140.204C304.499 139.491 304.518 139.075 304.518 139.075C304.518 139.075 304.939 127.048 305.761 124.613C306.526 122.375 307.148 111.094 307.243 109.305C307.243 109.152 307.243 109.071 307.243 109.071L307.181 108.028C307.224 107.267 307.243 106.421 307.239 105.531C307.239 101.441 306.813 96.2885 306.76 95.4561C306.76 95.3365 306.76 95.193 306.76 95.0208C306.794 93.2747 306.574 84.5299 299.14 81.2243C296.4 79.9996 293.106 78.5405 289.918 77.1197C289.095 70.0158 287.217 62.9501 287.379 55.7935C287.379 54.7172 287.475 53.6408 287.58 52.5692C287.58 52.8802 287.546 53.1959 287.542 53.526C287.542 54.2197 287.542 54.9181 287.542 55.6117C287.824 46.6612 291.204 37.6629 290.888 28.9038C290.86 29.7601 290.797 30.6211 290.716 31.4822C290.881 28.5195 290.571 25.5495 289.798 22.6848C289.511 21.6754 289.124 20.6326 288.297 19.958C287.515 19.4148 286.619 19.0595 285.677 18.92C283.415 18.3405 281.117 17.9122 278.798 17.6379C278.445 16.5585 277.922 15.5427 277.249 14.6289C272.401 7.96982 265.22 1.7126 256.729 0.277457C252.47 -0.440114 247.569 0.157861 244.672 3.20515C244.37 3.47284 244.085 3.76051 243.821 4.06623C242.263 5.92713 241.593 8.37166 239.997 10.2278C239.891 10.3522 239.772 10.467 239.657 10.5866C236.53 13.3851 231.659 13.9687 228.183 16.4802C227.571 16.9311 226.997 17.4319 226.467 17.9775C225.066 19.3662 223.811 20.8937 222.719 22.5365C221.155 24.7371 219.549 27.0285 219.052 29.6548C218.053 34.917 221.633 39.9065 222.298 45.2022C223.78 57.0517 210.676 67.5665 213.157 79.2581C213.819 82.1304 215.281 84.7561 217.374 86.8309C212.263 91.4616 207.912 95.9536 207.912 95.9536V96.2215H207.105L207.186 97.1782H207.105L207.549 102.369L207.105 109.927C207.105 109.927 207.105 110.008 207.105 110.162V110.2V110.405C207.105 110.405 207.105 110.487 207.105 110.64H207.133C207.281 113.41 207.869 123.37 208.567 125.47C209.39 127.905 209.806 139.931 209.806 139.931C209.806 139.931 210.714 156.928 211.546 159.176C212.378 161.425 211.197 169.591 215.514 171.519C216.777 172.488 218.272 173.108 219.85 173.317C219.63 175.106 219.769 176.403 220.481 176.809C220.786 176.989 221.132 177.088 221.485 177.097C221.192 177.531 220.932 177.987 220.706 178.46C218.992 178.281 217.309 177.884 215.696 177.278C211.058 175.365 195.669 171.059 191.199 174.087C186.729 177.116 175.972 179.862 180.939 192.051C185.906 204.24 188.22 204.546 188.22 204.546C189.749 205.657 191.091 207.005 192.193 208.54C193.685 210.784 207.583 215.917 211.058 215.917C212.536 215.894 214.013 215.968 215.481 216.137C215.481 216.137 211.708 219.448 212.21 221.371C212.712 223.294 211.063 238.688 211.063 238.688C211.063 238.688 214.888 242.544 216.523 237.487L216.58 237.564C216.886 237.98 218.54 239.86 221.653 237.487C222.926 236.52 224.279 235.663 225.697 234.923L240.766 232.79C242.337 232.691 243.913 232.68 245.485 232.756C247.875 232.952 250.223 231.536 251.7 230.441C254.822 231.627 258.331 232.924 259.999 233.397C263.384 234.354 278.941 238.53 282.579 237.224C283.335 236.923 284.008 236.444 284.539 235.827L288.01 235.937L286.385 236.263C286.385 236.263 289.55 236.315 293.852 236.373L293.671 236.478L299.068 236.43C306.966 236.502 315.839 236.526 317.006 236.263C318.832 235.856 328.322 236.143 331.119 236.263H331.898C331.898 236.263 342.325 234.182 338.022 223.595C334.714 215.463 324.545 213.099 320.032 212.449C321.304 212.195 322.398 211.999 323.125 211.884C326.276 211.406 332.395 208.536 332.892 207.555C333.39 206.574 338.519 203.728 339.844 202.106C341.168 200.485 344.95 188.989 341.809 180.488ZM255.443 204.278L254.932 204.446L254.588 204.56L253.928 205.211C253.402 204.857 252.838 204.484 252.25 204.101C253.287 204.163 254.353 204.225 255.443 204.278Z" fill="url(#paint0_linear)"/>
<path d="M285.926 153.838C285.926 153.838 293.24 172.973 297.4 171.059C301.559 169.146 300.431 161.013 301.224 158.784C302.018 156.555 302.898 139.649 302.898 139.649C302.898 139.649 303.299 127.689 304.093 125.269C304.829 123.044 305.427 111.826 305.527 110.061C305.527 109.908 305.527 109.827 305.527 109.827L304.738 95.9536L300.273 94.839L289.918 98.666L288.483 106.861L287.924 110.061L287.685 111.424L285.926 153.838Z" fill="#BE6F72"/>
<path opacity="0.1" d="M288.335 150.633C288.335 150.633 295.315 156.349 297.419 156.851C299.522 157.354 300.813 161.812 300.813 161.812" fill="black"/>
<path d="M228.723 154.675C228.723 154.675 221.409 173.81 217.249 171.897C213.09 169.983 214.218 161.851 213.425 159.621C212.631 157.392 211.751 140.486 211.751 140.486C211.751 140.486 211.35 128.527 210.556 126.106C209.82 123.881 209.222 112.663 209.122 110.898C209.122 110.745 209.122 110.664 209.122 110.664L209.916 96.7907L214.381 95.6761L224.736 99.5032L226.17 107.698L226.73 110.898L226.969 112.262L228.723 154.675Z" fill="#BE6F72"/>
<path d="M276.355 52.2726H260.028V77.7368H276.355V52.2726Z" fill="#3E373A"/>
<path opacity="0.1" d="M276.355 52.2726H260.028V77.7368H276.355V52.2726Z" fill="black"/>
<path d="M225.855 173.733C225.855 173.733 220.276 179.871 222.346 180.986C224.416 182.1 237.807 202.991 237.807 202.991C237.807 202.991 281.79 208.411 290.085 200.279C298.38 192.146 298.212 177.618 298.212 177.618C298.212 177.618 291.548 179.053 290.821 178.273C290.095 177.494 286.103 173.733 286.103 173.733C286.103 173.733 229.679 170.308 225.855 173.733Z" fill="#4B4B5B"/>
<path opacity="0.02" d="M225.855 173.733C225.855 173.733 220.276 179.871 222.346 180.986C224.416 182.1 237.807 202.991 237.807 202.991C237.807 202.991 281.79 208.411 290.085 200.279C298.38 192.146 298.212 177.618 298.212 177.618C298.212 177.618 291.548 179.053 290.821 178.273C290.095 177.494 286.103 173.733 286.103 173.733C286.103 173.733 229.679 170.308 225.855 173.733Z" fill="black"/>
<path d="M305.035 96.1545L290.692 107.636L286.356 107.951L284.764 108.066L258.025 110.028L230.296 107.999L226.17 107.698L220.912 107.315L209.916 96.7908C209.916 96.7908 217.699 88.4478 224.516 82.8173C227.203 80.5928 229.742 78.7941 231.592 78.0861L231.907 77.976C233.071 77.5219 234.11 76.7971 234.938 75.8616C240.322 70.3076 245.298 56.602 245.298 56.602C245.298 56.602 269.045 44.3268 266.176 60.4291C263.308 76.5313 276.852 72.5512 276.852 72.5512L281.317 74.5891L283.081 75.3976L287.58 77.4594L297.73 82.1188C305.694 85.788 305.035 96.1545 305.035 96.1545Z" fill="#BE6F72"/>
<path opacity="0.1" d="M256.911 69.7144C268.705 69.7144 278.267 60.1471 278.267 48.3452C278.267 36.5432 268.705 26.9759 256.911 26.9759C245.116 26.9759 235.555 36.5432 235.555 48.3452C235.555 60.1471 245.116 69.7144 256.911 69.7144Z" fill="black"/>
<path opacity="0.1" d="M305.068 111.377H209.122C209.122 111.223 209.122 111.142 209.122 111.142L209.916 97.2691C209.916 97.2691 217.699 88.9262 224.516 83.2956L284.754 80.9037L287.556 77.9473L297.706 82.6068C305.675 86.2712 305.035 96.6377 305.035 96.6377C305.035 96.6377 306.125 108.65 305.068 111.377Z" fill="black"/>
<path d="M305.068 110.898H209.122C209.122 110.745 209.122 110.664 209.122 110.664L209.916 96.7908C209.916 96.7908 217.699 88.4478 224.516 82.8173L284.754 80.4254L287.556 77.469L297.706 82.1284C305.675 85.7928 305.035 96.1593 305.035 96.1593C305.035 96.1593 306.125 108.171 305.068 110.898Z" fill="#E7C7CA"/>
<path opacity="0.1" d="M241.531 71.9963C241.531 71.9963 256.667 91.2942 276.828 71.5993C296.988 51.9043 279.06 115.529 279.06 115.529L235.555 120.695L241.531 71.9963Z" fill="black"/>
<path d="M241.531 72.953C241.531 72.953 256.667 92.2509 276.828 72.556C296.988 52.8611 279.06 116.486 279.06 116.486L235.555 121.652L241.531 72.953Z" fill="#E7C7CA"/>
<path opacity="0.1" d="M283.057 76.34L284.659 100.78L286.375 108.913L287.685 115.132C287.685 115.132 291.032 162.97 290.075 165.362C289.119 167.754 290.554 169.667 290.754 170.94C290.955 172.212 290.554 175.408 290.711 176.843C290.869 178.278 290.711 178.914 287.049 178.403C283.387 177.891 278.281 177.001 278.281 177.001C278.281 177.001 265.373 177.958 260.913 176.365C256.452 174.772 248.004 174.767 248.004 174.767C248.004 174.767 235.254 175.087 231.114 174.609C226.974 174.131 224.736 179.713 222.03 178.115C219.324 176.518 225.214 161.056 227.127 156.588C229.039 152.12 224.578 140.802 224.578 140.802L230.315 108.956L231.592 101.737V79.0428L231.907 78.9328C233.071 78.4787 234.11 77.7539 234.938 76.8184L236.373 99.6563L281.312 101.254V75.5507" fill="black"/>
<path d="M283.057 75.3832L284.659 99.8237L286.375 107.956L287.685 114.175C287.685 114.175 291.032 162.013 290.075 164.405C289.119 166.797 290.554 168.71 290.754 169.983C290.955 171.255 290.554 174.451 290.711 175.886C290.869 177.321 290.711 177.958 287.049 177.446C283.387 176.934 278.281 176.044 278.281 176.044C278.281 176.044 265.373 177.001 260.913 175.408C256.452 173.815 248.004 173.81 248.004 173.81C248.004 173.81 235.254 174.131 231.114 173.652C226.974 173.174 224.736 178.756 222.03 177.159C219.324 175.561 225.214 160.1 227.127 155.632C229.039 151.163 224.578 139.845 224.578 139.845L230.315 107.999L231.592 100.78V78.086L231.907 77.976C233.071 77.5219 234.11 76.7971 234.938 75.8616L236.373 98.6995L281.312 100.297V74.5939" fill="#E7C7CA"/>
<path opacity="0.1" d="M288.225 24.3783C287.953 23.3785 287.575 22.3404 286.791 21.6707C286.042 21.1327 285.178 20.7787 284.267 20.6374C282.086 20.0636 279.869 19.6385 277.631 19.3649C277.311 18.3026 276.827 17.297 276.197 16.3846C271.512 9.76377 264.579 3.5209 256.423 2.10968C252.154 1.36819 247.206 2.03314 244.471 5.40094C242.97 7.25227 242.325 9.70636 240.809 11.5242C237.888 15.0547 232.615 15.49 228.934 18.2215C226.969 19.6567 225.544 21.7376 224.153 23.7564C222.647 25.9426 221.098 28.2197 220.62 30.8317C219.664 36.0508 223.111 41.0259 223.747 46.2929C225.181 58.0754 212.559 68.5281 214.945 80.1527C216.336 86.9314 222.594 91.7056 229.068 94.1262C231.348 94.9825 233.954 95.834 235.02 98.025C235.498 98.9818 235.579 100.087 236.028 101.053C237.539 104.277 242.506 104.402 245.174 102.053C247.842 99.7041 248.683 95.9058 248.999 92.361C250.28 76.8806 244.084 61.5867 244.806 46.0681C245.021 41.3752 246.341 36.0508 250.543 33.9268C256.199 31.0565 263.002 35.8403 269.226 34.9266C272.172 42.0982 272.797 50.0132 271.014 57.5588C270.025 61.6872 268.313 65.6913 268.189 69.9488C268.002 76.4309 271.497 82.3533 274.519 88.0843C275.167 89.1559 275.601 90.3437 275.795 91.5812C275.843 92.8368 275.609 94.0872 275.112 95.2408C273.405 99.8381 270.46 104.105 270.125 108.999C270.027 109.57 270.156 110.157 270.484 110.635C270.821 110.954 271.255 111.15 271.717 111.19C276.88 112.075 281.346 107.497 283.865 102.9C286.674 97.8221 288.311 92.1794 288.656 86.386C289.177 76.6462 285.687 67.0642 285.902 57.3148C286.15 46.2307 291.156 35.0701 288.225 24.3783Z" fill="black"/>
<path d="M288.703 23.8999C288.431 22.9001 288.053 21.862 287.269 21.1923C286.52 20.6543 285.656 20.3003 284.745 20.159C282.564 19.5852 280.347 19.1601 278.109 18.8865C277.789 17.8242 277.305 16.8186 276.675 15.9062C271.99 9.28537 265.057 3.04251 256.901 1.63129C252.632 0.889796 247.684 1.55474 244.949 4.92254C243.448 6.77388 242.803 9.22797 241.287 11.0458C238.366 14.5763 233.093 15.0116 229.412 17.7431C227.447 19.1783 226.022 21.2592 224.631 23.278C223.125 25.4642 221.576 27.7413 221.098 30.3533C220.142 35.5724 223.589 40.5475 224.225 45.8145C225.659 57.597 213.038 68.0497 215.423 79.6743C216.814 86.453 223.072 91.2272 229.546 93.6478C231.826 94.5041 234.432 95.3556 235.498 97.5466C235.976 98.5034 236.057 99.6084 236.507 100.575C238.017 103.799 242.984 103.923 245.652 101.575C248.32 99.2257 249.161 95.4274 249.477 91.8826C250.758 76.4022 244.562 61.1083 245.284 45.5897C245.499 40.8968 246.819 35.5724 251.021 33.4484C256.677 30.5781 263.48 35.3619 269.704 34.4482C272.65 41.6198 273.275 49.5348 271.492 57.0804C270.503 61.2088 268.791 65.2129 268.667 69.4704C268.481 75.9525 271.975 81.8749 274.997 87.6059C275.645 88.6775 276.079 89.8653 276.273 91.1028C276.321 92.3584 276.087 93.6088 275.59 94.7624C273.883 99.3597 270.938 103.627 270.603 108.521C270.505 109.092 270.634 109.679 270.962 110.157C271.299 110.476 271.733 110.671 272.195 110.712C277.359 111.597 281.824 107.019 284.343 102.421C287.152 97.3437 288.789 91.701 289.134 85.9076C289.655 76.1678 286.165 66.5858 286.38 56.8364C286.628 45.7523 291.634 34.5917 288.703 23.8999Z" fill="#3E373A"/>
<path d="M278.143 235.713L297.108 236.32L294.388 222.246L279.859 223.629L278.143 235.713Z" fill="#C3C7D9"/>
<path d="M336.908 202.355C335.632 203.948 330.693 206.818 330.215 207.775C329.737 208.732 323.842 211.602 320.811 212.08C317.78 212.559 308.223 214.635 306.469 215.75C305.211 216.553 295.119 219.098 288.488 220.51C286.692 220.935 284.874 221.262 283.043 221.49C280.174 221.648 248.784 210.966 248.784 210.966L254.836 204.747L255.171 204.632C256.882 204.053 264.79 201.379 269.178 200.107C274.122 198.671 279.859 192.773 279.859 192.773C279.859 192.773 288.302 189.903 289.42 189.582C290.539 189.262 286.552 178.422 286.552 178.422C286.552 178.422 304.877 175.877 312.048 173.719C319.219 171.562 335.794 172.361 338.82 180.814C341.847 189.267 338.204 200.762 336.908 202.355Z" fill="#4B4B5B"/>
<path d="M253.402 229.302C253.402 229.302 249.74 233.129 246.073 232.814C242.406 232.498 229.584 233.77 229.584 233.77C227.26 234.698 225.084 235.96 223.125 237.516C220.127 239.879 218.535 237.994 218.239 237.593L218.186 237.516C216.59 242.544 212.928 238.712 212.928 238.712C212.928 238.712 214.52 223.404 214.032 221.49C213.544 219.577 217.182 216.29 217.182 216.29L221.485 215.195L232.385 212.401L248.004 217.821L253.402 229.302Z" fill="#E7C7CA"/>
<path opacity="0.1" d="M221.466 215.195L218.239 237.593L218.186 237.516C216.59 242.544 212.928 238.712 212.928 238.712C212.928 238.712 214.52 223.404 214.032 221.49C213.544 219.577 217.182 216.29 217.182 216.29L221.466 215.195Z" fill="black"/>
<path opacity="0.1" d="M244.022 151.484C244.022 151.484 252.465 154.354 259.799 151.484Z" fill="black"/>
<path opacity="0.1" d="M272.845 156.909C272.845 156.909 276.35 158.66 279.06 156.909Z" fill="black"/>
<path opacity="0.1" d="M272.845 161.061C272.845 161.061 278.74 161.851 279.859 160.258Z" fill="black"/>
<path opacity="0.1" d="M270.933 169.983C270.933 169.983 282.005 168.548 284.754 166.634Z" fill="black"/>
<path opacity="0.1" d="M237.147 166.634C237.147 166.634 243.362 170.141 247.985 169.983Z" fill="black"/>
<path opacity="0.1" d="M288.483 220.51C286.687 220.935 284.87 221.262 283.038 221.49C280.17 221.648 248.779 210.966 248.779 210.966L254.831 204.747L255.166 204.632C256.122 205.307 256.906 205.885 257.466 206.326C260.1 208.402 262.643 205.689 263.599 205.689C264.555 205.689 272.841 212.545 272.841 212.545C272.841 212.545 280.49 214.3 281.766 215.893C283.043 217.486 287.503 217.17 288.297 218.285C288.536 218.63 288.565 219.476 288.483 220.51Z" fill="black"/>
<path d="M229.584 179.072C229.584 179.072 221.849 179.517 217.388 177.637C212.928 175.757 198.107 171.418 193.804 174.465C189.502 177.513 179.142 180.206 183.922 192.328C188.703 204.45 190.936 204.766 190.936 204.766C192.415 205.876 193.706 207.217 194.76 208.737C196.195 210.971 209.581 216.07 212.928 216.07C216.274 216.07 222.169 216.07 230.454 221.811C238.739 227.551 246.231 228.192 246.231 228.192C246.231 228.192 256.748 232.498 260.023 233.455C263.298 234.411 278.262 238.554 281.771 237.282C285.28 236.009 287.508 228.03 287.508 228.03C287.508 228.03 289.1 220.854 288.302 219.739C287.503 218.625 283.043 218.94 281.771 217.347C280.499 215.754 272.845 213.999 272.845 213.999C272.845 213.999 264.579 207.139 263.623 207.139C262.667 207.139 260.124 209.846 257.489 207.775C252.242 203.886 246.729 200.369 240.991 197.251C234.938 194.06 229.584 179.072 229.584 179.072Z" fill="#4B4B5B"/>
<path opacity="0.1" d="M214.032 183.698C215.409 183.417 216.833 183.457 218.192 183.816C219.551 184.176 220.809 184.844 221.868 185.77C225.692 188.96 238.562 195.366 238.562 195.366" fill="black"/>
<path opacity="0.1" d="M309.658 183.497C309.658 183.497 292.604 186.081 289.42 189.587Z" fill="black"/>
<path d="M329.259 236.32H328.508C325.812 236.224 316.676 235.937 314.916 236.32C312.846 236.798 285.433 236.32 285.433 236.32L290.793 235.205C290.793 235.205 288.804 228.231 290.066 227.652C290.066 227.652 282.895 222.925 288.302 219.735C293.709 216.544 299.537 217.888 299.537 217.888L313.109 213.286L315.715 212.401C315.715 212.401 331.013 213.2 335.154 223.724C339.294 234.249 329.259 236.32 329.259 236.32Z" fill="#E7C7CA"/>
<path opacity="0.1" d="M329.259 236.32H328.508C332.959 232.646 343.028 221.462 313.109 213.31L315.715 212.425C315.715 212.425 331.013 213.224 335.154 223.748C339.294 234.273 329.259 236.32 329.259 236.32Z" fill="black"/>
<path d="M301.133 223.92C301.595 223.92 301.97 223.546 301.97 223.083C301.97 222.621 301.595 222.246 301.133 222.246C300.671 222.246 300.297 222.621 300.297 223.083C300.297 223.546 300.671 223.92 301.133 223.92Z" fill="#4B4B5B"/>
<path d="M296.271 225.303C296.733 225.303 297.108 224.928 297.108 224.466C297.108 224.003 296.733 223.629 296.271 223.629C295.809 223.629 295.435 224.003 295.435 224.466C295.435 224.928 295.809 225.303 296.271 225.303Z" fill="#4B4B5B"/>
<g opacity="0.1">
<path opacity="0.1" d="M272.582 47.5558C272.768 42.294 271.832 37.0529 269.838 32.1806C263.623 33.1087 256.815 28.3105 251.155 31.1808C246.967 33.3048 245.652 38.6292 245.418 43.3221C245.361 44.5611 245.351 45.8001 245.375 47.0392C245.375 46.599 245.375 46.1541 245.418 45.714C245.638 41.0211 246.953 35.6967 251.155 33.5727C256.815 30.7024 263.614 35.4863 269.838 34.5725C271.527 38.6996 272.457 43.098 272.582 47.5558V47.5558Z" fill="black"/>
<path opacity="0.1" d="M224.421 46.6803C224.502 45.638 224.482 44.59 224.358 43.5517C223.852 39.342 221.552 35.3188 221.136 31.2143C220.601 36.1655 223.751 40.9206 224.358 45.9436C224.421 46.202 224.421 46.4316 224.421 46.6803Z" fill="black"/>
<path opacity="0.1" d="M249.611 89.6103C249.314 93.1598 248.478 96.9534 245.786 99.307C243.095 101.661 238.137 101.532 236.64 98.3072C236.162 97.3505 236.091 96.2358 235.627 95.2791C234.566 93.0881 231.955 92.2366 229.675 91.3803C223.197 88.9549 216.948 84.2045 215.557 77.4068C215.433 76.7909 215.348 76.1678 215.304 75.5411C215.186 76.9651 215.271 78.3986 215.557 79.7987C216.948 86.5773 223.206 91.3468 229.675 93.7722C231.955 94.6285 234.566 95.48 235.627 97.671C236.105 98.6277 236.186 99.7328 236.64 100.699C238.146 103.923 243.114 104.048 245.786 101.699C248.459 99.3501 249.29 95.5517 249.611 92.0022C249.756 90.1339 249.806 88.2593 249.759 86.386C249.759 87.4719 249.697 88.5435 249.611 89.6103Z" fill="black"/>
<path opacity="0.1" d="M286.538 54.5689C286.538 55.2625 286.538 55.9514 286.538 56.6402C286.805 47.7424 290.066 38.7966 289.746 30.0853C289.497 38.1413 286.719 46.379 286.538 54.5689Z" fill="black"/>
<path opacity="0.1" d="M276.278 90.5622C276.396 89.9946 276.433 89.4132 276.388 88.8353C276.195 87.5972 275.762 86.4091 275.112 85.3383C272.348 80.0761 269.198 74.6895 268.825 68.8485C268.825 69.0973 268.791 69.3269 268.786 69.5948C268.595 76.0721 272.09 81.9992 275.112 87.7302C275.625 88.6178 276.017 89.5703 276.278 90.5622V90.5622Z" fill="black"/>
<path opacity="0.1" d="M289.287 83.64C288.93 89.4357 287.282 95.0781 284.463 100.154C281.939 104.751 277.478 109.329 272.31 108.444C271.847 108.404 271.412 108.207 271.077 107.884C270.979 107.775 270.903 107.648 270.852 107.511C270.794 107.884 270.747 108.262 270.718 108.645C270.619 109.215 270.748 109.801 271.077 110.276C271.412 110.599 271.847 110.796 272.31 110.836C277.478 111.721 281.939 107.143 284.463 102.546C287.282 97.47 288.93 91.8276 289.287 86.032C289.344 84.9125 289.349 83.7979 289.315 82.6833C289.306 83.0038 289.306 83.3195 289.287 83.64Z" fill="black"/>
</g>
<path opacity="0.1" d="M290.066 227.652C290.066 227.652 302.166 232.732 310.145 221.49" stroke="black" stroke-miterlimit="10"/>
<path opacity="0.1" d="M292.447 236.531C292.447 236.531 302.329 230.101 314.916 236.32" stroke="black" stroke-miterlimit="10"/>
<path opacity="0.1" d="M226.299 235.071C226.299 235.071 230.449 225.705 241.531 232.847" stroke="black" stroke-miterlimit="10"/>
<path opacity="0.1" d="M212.846 96.5515L221.308 88.8974C221.308 88.8974 254.119 86.7447 255.477 97.9054C255.477 97.9054 267.108 84.6733 291.572 87.6202L301.922 95.8675L273.314 108.43L245.514 118.079L225.037 108.908L212.846 96.5515Z" fill="black"/>
<path d="M212.846 97.0299L221.308 89.3758C221.308 89.3758 254.119 87.2231 255.477 98.3838C255.477 98.3838 267.108 85.1517 291.572 88.0986L301.922 96.3459L273.314 108.908L245.514 118.557L225.037 109.387L212.846 97.0299Z" fill="#D5D6DB"/>
<path opacity="0.1" d="M209.103 97.9867L212.846 142.797L252.527 144.791L250.806 100.173L250.772 99.4218L209.103 97.9867Z" fill="black"/>
<path d="M209.103 97.0299L212.846 141.84L252.527 143.835L250.806 99.2161L250.772 98.4651L209.103 97.0299Z" fill="#2093BF"/>
<path opacity="0.1" d="M303.739 97.0299L262.806 103.172V148.183L302.807 142.4L303.739 97.0299Z" fill="black"/>
<path d="M303.739 96.0732L262.806 102.216V147.226L302.807 141.443L303.739 96.0732Z" fill="#2093BF"/>
<path opacity="0.3" d="M294.087 107.057L271.975 109.516L272.458 117.055L294.072 114.692L294.087 107.057Z" fill="white"/>
<path d="M214.998 165.835L217.249 171.896C217.249 171.896 220.596 174.767 224.258 173.332C227.92 171.896 231.114 171.184 232.706 169.787C234.298 168.39 236.53 161.372 236.53 161.372C236.53 161.372 238.763 153.718 240.991 151.805C243.219 149.891 249.118 123.527 240.991 126.106C232.864 128.684 226.648 152.603 226.648 152.603C226.648 152.603 225.214 154.354 223.144 154.517C221.074 154.68 216.929 154.196 216.131 155.952C215.332 157.708 212.607 162.329 214.998 165.835Z" fill="#BE6F72"/>
<path opacity="0.1" d="M262.806 103.168C260.71 103.64 258.533 103.615 256.448 103.095C254.364 102.575 252.43 101.575 250.801 100.173L252.527 144.787C252.527 144.787 256.591 149.188 262.806 148.183V103.168Z" fill="black"/>
<path d="M262.806 102.211C260.71 102.683 258.533 102.659 256.448 102.139C254.364 101.619 252.43 100.618 250.801 99.2162L252.527 143.83C252.527 143.83 256.591 148.231 262.806 147.226V102.211Z" fill="#2093BF"/>
<path opacity="0.1" d="M262.806 102.211C260.71 102.683 258.533 102.659 256.448 102.139C254.364 101.619 252.43 100.618 250.801 99.2162L252.527 143.83C252.527 143.83 256.591 148.231 262.806 147.226V102.211Z" fill="black"/>
<path opacity="0.1" d="M263.762 97.183C263.762 97.183 280.413 92.0883 284.754 92.8058Z" fill="black"/>
<path opacity="0.1" d="M245.136 94.9586C245.136 94.9586 228.996 91.1315 226.299 92.2174Z" fill="black"/>
<path opacity="0.1" d="M274.26 97.8193C274.26 97.8193 285.395 93.7339 289.42 95.6761Z" fill="black"/>
<path opacity="0.1" d="M268.653 200.303C270.378 199.006 272.215 197.865 274.141 196.892C277.009 195.509 282.268 191.922 282.268 191.922" fill="black"/>
<path opacity="0.1" d="M226.299 151.484C226.299 151.484 219.315 157.201 217.216 157.703C215.117 158.205 213.822 162.664 213.822 162.664" fill="black"/>
<path d="M299.632 164.984L297.404 171.059C297.404 171.059 294.058 173.93 290.391 172.495C286.724 171.059 283.54 170.347 281.943 168.95C280.346 167.553 278.119 160.535 278.119 160.535C278.119 160.535 275.891 152.881 273.658 150.967C271.425 149.054 265.531 122.69 273.658 125.269C281.785 127.847 288 151.766 288 151.766C288 151.766 289.435 153.517 291.505 153.68C293.575 153.842 297.72 153.359 298.518 155.115C299.317 156.871 302.023 161.492 299.632 164.984Z" fill="#BE6F72"/>
<path opacity="0.1" d="M295.726 153.809C295.726 153.809 300.292 156.746 300.273 160.258Z" fill="black"/>
<path d="M256.987 68.6667C268.782 68.6667 278.343 59.0994 278.343 47.2975C278.343 35.4956 268.782 25.9282 256.987 25.9282C245.193 25.9282 235.632 35.4956 235.632 47.2975C235.632 59.0994 245.193 68.6667 256.987 68.6667Z" fill="#BE6F72"/>
<path d="M243.577 41.5617C246.168 41.1551 248.439 39.6482 250.916 38.7823C256.457 36.8353 262.586 38.17 268.194 39.9257C270.345 40.6002 272.53 41.3608 274.786 41.3608C277.043 41.3608 279.438 40.4375 280.59 38.4905C281.652 36.7014 281.446 34.3765 280.552 32.4964C279.658 30.6164 278.162 29.1047 276.651 27.6791C271.679 22.9814 265.512 18.5899 258.689 19.0683C255.945 19.2644 253.321 20.2451 250.796 21.331C247.618 22.7016 244.524 24.2607 241.531 26C239.232 27.3347 234.972 29.1191 233.648 31.5588C230.636 37.0554 238.892 42.2984 243.577 41.5617Z" fill="#3E373A"/>
<path opacity="0.1" d="M280.59 36.4813C279.438 38.4283 277.043 39.3516 274.786 39.3516C272.53 39.3516 270.345 38.6196 268.189 37.9451C262.581 36.1895 256.457 34.85 250.911 36.8018C248.439 37.6677 246.164 39.1937 243.573 39.5764C239.796 40.1696 233.715 36.8783 233.055 32.6925C232.314 37.5289 239.365 41.6717 243.573 41.0115C246.164 40.6049 248.439 39.098 250.911 38.2369C256.457 36.2851 262.581 37.6246 268.189 39.3803C270.345 40.0548 272.525 40.8154 274.786 40.7867C277.048 40.758 279.438 39.8682 280.59 37.9164C281.188 36.8546 281.423 35.6269 281.26 34.4195C281.185 35.1464 280.957 35.8492 280.59 36.4813Z" fill="black"/>
<path d="M453.899 295.74C453.899 295.74 456.734 299.447 452.589 305.049C448.444 310.651 445.031 315.377 446.408 318.869C446.408 318.869 452.661 308.469 457.748 308.321C462.835 308.173 459.488 301.992 453.899 295.74Z" fill="#2093BF"/>
<path opacity="0.1" d="M453.899 295.74C454.146 296.098 454.341 296.489 454.478 296.902C459.44 302.738 462.089 308.187 457.313 308.321C452.867 308.45 447.536 316.406 446.26 318.41C446.3 318.572 446.35 318.732 446.408 318.889C446.408 318.889 452.661 308.489 457.748 308.34C462.835 308.192 459.488 301.992 453.899 295.74Z" fill="black"/>
<path d="M459.158 300.466C459.158 301.772 459.01 302.829 458.833 302.829C458.656 302.829 458.503 301.772 458.503 300.466C458.503 299.16 458.685 299.777 458.867 299.777C459.048 299.777 459.158 299.16 459.158 300.466Z" fill="#FFD037"/>
<path d="M460.97 302.026C459.828 302.648 458.828 303.025 458.742 302.868C458.656 302.71 459.512 302.073 460.655 301.432C461.797 300.791 461.348 301.26 461.434 301.432C461.52 301.605 462.118 301.399 460.97 302.026Z" fill="#FFD037"/>
<path d="M438.916 295.74C438.916 295.74 436.081 299.447 440.226 305.049C444.371 310.651 447.785 315.377 446.403 318.869C446.403 318.869 440.154 308.469 435.063 308.321C429.971 308.173 433.342 301.992 438.916 295.74Z" fill="#2093BF"/>
<path opacity="0.1" d="M438.916 295.74C438.669 296.098 438.475 296.489 438.338 296.902C433.375 302.738 430.727 308.187 435.503 308.321C439.944 308.45 445.279 316.406 446.556 318.41C446.516 318.573 446.465 318.733 446.403 318.889C446.403 318.889 440.154 308.489 435.063 308.34C429.971 308.192 433.342 301.992 438.916 295.74Z" fill="black"/>
<path d="M433.648 300.466C433.648 301.772 433.791 302.829 433.973 302.829C434.155 302.829 434.303 301.772 434.303 300.466C434.303 299.16 434.116 299.777 433.939 299.777C433.763 299.777 433.648 299.16 433.648 300.466Z" fill="#FFD037"/>
<path d="M431.841 302.026C432.983 302.648 433.982 303.025 434.069 302.868C434.155 302.71 433.299 302.073 432.156 301.432C431.014 300.791 431.463 301.26 431.377 301.432C431.291 301.605 430.693 301.399 431.841 302.026Z" fill="#FFD037"/>
<path opacity="0.1" d="M446.408 347.247C462.778 347.247 476.049 345.21 476.049 342.698C476.049 340.185 462.778 338.148 446.408 338.148C430.038 338.148 416.767 340.185 416.767 342.698C416.767 345.21 430.038 347.247 446.408 347.247Z" fill="#2093BF"/>
<path d="M461.663 313.87L461.52 315.028L461.319 316.664L461.238 317.348L461.037 318.984L460.951 319.668L460.755 321.3L458.484 339.909C458.283 341.569 455.573 342.865 452.298 342.865H440.513C437.238 342.865 434.532 341.569 434.327 339.909L432.056 321.3L431.855 319.668L431.774 318.984L431.573 317.348L431.487 316.664L431.291 315.028L431.147 313.87C431.037 312.914 432.5 312.139 434.355 312.139H458.46C460.31 312.139 461.778 312.928 461.663 313.87Z" fill="#65617D"/>
<path d="M461.52 315.028L461.324 316.664H431.492L431.291 315.028H461.52Z" fill="#9D9CB5"/>
<path d="M461.238 317.348L461.042 318.984H431.774L431.573 317.348H461.238Z" fill="#9D9CB5"/>
<path d="M460.956 319.668L460.755 321.304H432.056L431.86 319.668H460.956Z" fill="#9D9CB5"/>
</g>
<defs>
<linearGradient id="paint0_linear" x1="261.338" y1="240.109" x2="261.338" y2="-5.44939e-06" gradientUnits="userSpaceOnUse">
<stop stop-color="#808080" stop-opacity="0.25"/>
<stop offset="0.54" stop-color="#808080" stop-opacity="0.12"/>
<stop offset="1" stop-color="#808080" stop-opacity="0.1"/>
</linearGradient>
<clipPath id="clip0">
<rect width="489" height="389" fill="white"/>
</clipPath>
</defs>
</svg>
